<svg width="24" height="24" viewBox="0 0 24 24" fill="none" xmlns="http://www.w3.org/2000/svg">
<path d="M13.5503 20.16C13.2903 20.27 13.0103 20.37 12.7103 20.47L11.1303 20.99C7.16034 22.27 5.07034 21.2 3.78034 17.23L2.50034 13.28C1.22034 9.31 2.28034 7.21 6.25034 5.93L7.79034 5.42C7.60034 5.9 7.44034 6.45 7.29034 7.07L6.31034 11.26C5.21034 15.97 6.82034 18.57 11.5303 19.69L13.2103 20.09C13.3203 20.12 13.4403 20.14 13.5503 20.16Z" fill="#A3BAC3"/>
<path d="M17.1702 3.21L15.5002 2.82C12.1602 2.03 10.1702 2.68 9.00018 5.1C8.70018 5.71 8.46018 6.45 8.26018 7.3L7.28018 11.49C6.30018 15.67 7.59018 17.73 11.7602 18.72L13.4402 19.12C14.0202 19.26 14.5602 19.35 15.0602 19.39C18.1802 19.69 19.8402 18.23 20.6802 14.62L21.6602 10.44C22.6402 6.26 21.3602 4.19 17.1702 3.21Z" fill="#A3BAC3"/>
</svg>
